<svg xmlns="http://www.w3.org/2000/svg" xmlns:xlink="http://www.w3.org/1999/xlink" width="900" zoomAndPan="magnify" viewBox="0 0 675 599.999999" height="800" preserveAspectRatio="xMidYMid meet" version="1.0"><defs><clipPath id="614bd63a8e"><path d="M 0 117 L 675 117 L 675 599.796875 L 0 599.796875 Z M 0 117 " clip-rule="nonzero"/></clipPath><clipPath id="a0aa688e8c"><path d="M 78.300781 3.554688 L 664 3.554688 L 664 599.796875 L 78.300781 599.796875 Z M 78.300781 3.554688 " clip-rule="nonzero"/></clipPath><clipPath id="203540e565"><path d="M 30 13.003906 L 665 13.003906 L 665 599.796875 L 30 599.796875 Z M 30 13.003906 " clip-rule="nonzero"/></clipPath></defs><g clip-path="url(#614bd63a8e)"><path fill="#eaf3fa" d="M 586.394531 243.75 L 593.347656 243.75 C 593.347656 243.75 593.351562 243.75 593.351562 243.75 C 593.351562 243.75 593.355469 243.75 593.355469 243.75 L 609.640625 243.75 C 609.640625 243.75 609.644531 243.75 609.644531 243.75 C 609.644531 243.75 609.652344 243.75 609.652344 243.75 L 616.597656 243.75 C 619.910156 243.75 622.609375 241.054688 622.609375 237.738281 L 622.609375 199.152344 C 622.609375 195.839844 619.910156 193.140625 616.597656 193.140625 L 586.394531 193.140625 C 583.082031 193.140625 580.382812 195.839844 580.382812 199.152344 L 580.382812 237.738281 C 580.382812 241.054688 583.082031 243.75 586.394531 243.75 Z M 530.429688 333.820312 C 362.34375 270.785156 411.371094 117.433594 225.773438 117.433594 C 57.6875 117.433594 117.21875 480.894531 54.183594 508.910156 C -8.847656 536.925781 0.484375 599.960938 0.484375 599.960938 L 673.714844 599.960938 C 673.714844 599.960938 698.519531 396.851562 530.429688 333.820312 Z M 595.617188 333.726562 L 612.039062 333.726562 L 612.039062 316.777344 L 628.988281 316.777344 L 628.988281 300.355469 L 612.039062 300.355469 L 612.039062 283.40625 L 595.617188 283.40625 L 595.617188 300.355469 L 578.671875 300.355469 L 578.671875 316.777344 L 595.617188 316.777344 Z M 483.382812 247.832031 L 528.847656 247.832031 C 529.253906 247.832031 529.578125 247.503906 529.578125 247.105469 C 529.578125 246.703125 529.253906 246.375 528.847656 246.375 L 523.574219 246.375 L 523.574219 244.65625 L 488.757812 244.65625 L 488.757812 246.375 L 483.382812 246.375 C 482.976562 246.375 482.652344 246.703125 482.652344 247.105469 C 482.652344 247.503906 482.976562 247.832031 483.382812 247.832031 Z M 482.652344 261.828125 C 482.652344 261.425781 482.976562 261.097656 483.382812 261.097656 L 528.847656 261.097656 C 529.253906 261.097656 529.578125 261.425781 529.578125 261.828125 C 529.578125 262.226562 529.253906 262.554688 528.847656 262.554688 L 519.207031 262.554688 L 519.207031 265.734375 L 493.128906 265.734375 L 493.128906 262.554688 L 483.382812 262.554688 C 482.976562 262.554688 482.652344 262.226562 482.652344 261.828125 " fill-opacity="1" fill-rule="nonzero"/></g><path fill="#e88490" d="M 412.035156 169.585938 C 403.164062 178.832031 380.429688 178.570312 380.429688 178.570312 L 378.511719 221.757812 L 300.476562 182.136719 L 304.199219 128.347656 C 304.199219 128.347656 285.710938 59.304688 304.199219 43.453125 C 309.285156 39.09375 316.351562 34.726562 323.914062 30.691406 C 352.59375 15.40625 388.265625 21.449219 409.386719 46.144531 C 412.5625 49.851562 414.949219 53.441406 416.027344 56.664062 C 421.773438 73.835938 423.234375 157.914062 412.035156 169.585938 " fill-opacity="1" fill-rule="nonzero"/><path fill="#ffa461" d="M 390.523438 65.480469 C 404.925781 69.566406 419.074219 60.296875 419.074219 60.296875 C 419.882812 60.101562 420.734375 59.847656 421.609375 59.527344 C 421.628906 59.515625 421.644531 59.511719 421.660156 59.507812 C 422.082031 59.347656 422.507812 59.167969 422.933594 58.972656 C 422.976562 58.957031 423.015625 58.9375 423.054688 58.921875 C 423.476562 58.71875 423.898438 58.503906 424.316406 58.265625 C 424.351562 58.25 424.378906 58.230469 424.410156 58.214844 C 425.277344 57.714844 426.113281 57.128906 426.90625 56.433594 C 426.921875 56.417969 426.9375 56.40625 426.953125 56.390625 C 427.328125 56.050781 427.691406 55.6875 428.039062 55.296875 C 428.078125 55.257812 428.113281 55.214844 428.15625 55.171875 C 428.492188 54.78125 428.816406 54.371094 429.117188 53.925781 C 429.148438 53.878906 429.171875 53.832031 429.203125 53.789062 C 429.511719 53.324219 429.800781 52.839844 430.058594 52.3125 C 430.363281 51.695312 430.632812 51.039062 430.859375 50.324219 C 430.859375 50.324219 430.859375 50.320312 430.859375 50.320312 C 431.085938 49.613281 431.265625 48.859375 431.398438 48.058594 C 431.402344 48.050781 431.402344 48.050781 431.402344 48.050781 C 433.570312 34.863281 433.878906 22.8125 433.878906 22.8125 L 429.980469 15.484375 C 429.980469 15.484375 422.027344 10.230469 401.992188 7.308594 C 381.953125 4.394531 368.917969 13.652344 368.917969 13.652344 C 368.917969 13.652344 376.117188 61.394531 390.523438 65.480469 Z M 435.972656 288.542969 C 430.628906 284.375 425.007812 282.261719 419.269531 282.261719 L 418.4375 282.261719 C 414.332031 282.261719 410.449219 283.363281 406.878906 285.542969 C 406.15625 285.984375 405.53125 286.402344 404.984375 286.8125 C 404.394531 287.25 403.804688 287.734375 403.136719 288.335938 C 400.648438 290.574219 398.898438 292.964844 397.875 294.582031 C 396.320312 297.015625 395.910156 300.011719 396.746094 302.785156 L 403.179688 324.0625 C 403.402344 324.8125 403.730469 325.535156 404.171875 326.277344 C 404.824219 327.371094 405.648438 328.304688 406.609375 329.054688 L 418.140625 337.976562 C 418.679688 338.390625 419.285156 338.761719 419.988281 339.09375 C 421.3125 339.714844 422.777344 340.046875 424.238281 340.046875 C 424.890625 340.046875 425.554688 339.980469 426.199219 339.851562 C 428.019531 339.484375 429.683594 338.625 431.023438 337.367188 L 439.773438 329.167969 C 440.238281 328.730469 440.589844 328.292969 440.816406 328.003906 C 442.019531 326.453125 442.730469 324.613281 442.882812 322.683594 L 444.492188 301.71875 C 444.519531 301.410156 444.515625 301.097656 444.492188 300.738281 C 444.445312 298.484375 443.636719 296.304688 442.230469 294.617188 C 440.945312 293.066406 438.808594 290.75 435.972656 288.542969 Z M 627.519531 166.0625 C 627.519531 161.019531 623.429688 156.9375 618.390625 156.9375 L 584.601562 156.9375 C 584.054688 156.9375 583.523438 156.992188 583.003906 157.085938 C 578.726562 157.839844 575.472656 161.570312 575.472656 166.0625 L 575.472656 243.289062 C 575.472656 247.199219 578.644531 250.363281 582.550781 250.363281 L 620.445312 250.363281 C 624.347656 250.363281 627.519531 247.199219 627.519531 243.289062 Z M 636.113281 183.789062 L 636.113281 196.503906 L 637.292969 196.503906 L 637.292969 216.933594 L 636.113281 216.933594 L 636.113281 246.808594 C 636.113281 254.300781 630.039062 260.382812 622.539062 260.382812 L 580.453125 260.382812 C 572.953125 260.382812 566.878906 254.300781 566.878906 246.808594 L 566.878906 160.285156 C 566.878906 152.902344 572.863281 146.917969 580.246094 146.917969 L 580.496094 146.917969 L 580.496094 144.976562 L 589.421875 144.976562 L 589.421875 146.917969 L 622.746094 146.917969 C 630.128906 146.917969 636.113281 152.902344 636.113281 160.285156 L 636.113281 163.367188 L 637.292969 163.367188 L 637.292969 183.789062 Z M 16.214844 73.6875 L 38.617188 147.53125 L 95.710938 147.53125 L 121.003906 64.179688 L 13.324219 64.179688 Z M 344.613281 404.023438 L 412.75 404.023438 L 412.75 430.609375 L 344.613281 430.609375 L 344.613281 404.023438 " fill-opacity="1" fill-rule="nonzero"/><g clip-path="url(#a0aa688e8c)"><path fill="#afc3fe" d="M 440.125 301.386719 C 440.238281 299.949219 439.792969 298.523438 438.871094 297.417969 C 435.90625 293.859375 428.539062 286.421875 418.851562 286.644531 C 409.535156 286.433594 403.925781 293.226562 401.566406 296.933594 C 400.691406 298.296875 400.46875 299.96875 400.9375 301.527344 L 407.367188 322.796875 C 407.707031 323.90625 408.375 324.882812 409.289062 325.589844 L 420.820312 334.515625 C 422.980469 336.1875 426.039062 336.046875 428.035156 334.171875 L 436.773438 325.976562 C 437.789062 325.027344 438.414062 323.730469 438.519531 322.34375 Z M 408.375 408.402344 L 348.992188 408.402344 L 348.992188 426.230469 L 408.375 426.230469 Z M 512.921875 440.042969 C 528.097656 505.40625 519.925781 536.925781 501.25 545.09375 C 490.28125 549.894531 470.636719 558.113281 456.289062 564.078125 C 452.402344 589.78125 442.882812 599.960938 442.882812 599.960938 L 236.898438 599.960938 C 226 599.960938 216.921875 591.589844 216.035156 580.722656 L 204.34375 437.117188 L 181.195312 489.777344 L 208.765625 491.359375 L 215.914062 579.273438 C 215.914062 579.273438 106.070312 596.304688 82.976562 543.929688 C 59.046875 489.648438 142.839844 311.160156 142.839844 311.160156 C 150.160156 293.382812 157.046875 277.652344 161.574219 269.621094 C 198.761719 203.527344 279.476562 183.859375 286.546875 182.25 L 297.855469 158.726562 C 297.855469 158.726562 360.457031 181.089844 372.519531 193.128906 C 377.019531 187.667969 381.273438 184.140625 381.273438 184.140625 C 385.023438 187.703125 389.523438 197.25 392.328125 203.789062 C 403.382812 210.523438 420.824219 223.324219 432.070312 242.261719 C 432.070312 242.261719 448.441406 259.449219 465.976562 298.710938 C 484.777344 340.796875 505.070312 406.21875 512.921875 440.042969 Z M 627.535156 301.816406 L 610.585938 301.816406 L 610.585938 284.867188 L 597.078125 284.867188 L 597.078125 301.816406 L 580.128906 301.816406 L 580.128906 315.320312 L 597.078125 315.320312 L 597.078125 332.265625 L 610.585938 332.265625 L 610.585938 315.320312 L 627.535156 315.320312 Z M 663.792969 288.488281 L 663.792969 355.023438 C 663.792969 361.46875 658.566406 366.695312 652.125 366.695312 L 555.539062 366.695312 C 549.089844 366.695312 543.867188 361.46875 543.867188 355.023438 L 543.867188 288.488281 C 543.867188 282.046875 549.089844 276.8125 555.539062 276.8125 L 652.125 276.8125 C 658.566406 276.8125 663.792969 282.046875 663.792969 288.488281 Z M 295.988281 71.539062 C 343.6875 83.472656 388.652344 70.011719 411.417969 60.8125 C 406.863281 60.285156 397.046875 58 392.550781 48.050781 C 386.589844 34.863281 382.824219 22.8125 382.824219 22.8125 C 382.824219 22.8125 390.234375 9.90625 406.539062 10.195312 C 422.761719 9.90625 433.878906 22.8125 433.878906 22.8125 C 433.878906 22.8125 433.570312 34.863281 431.402344 48.050781 C 431.136719 49.667969 430.671875 51.078125 430.058594 52.3125 C 441.550781 47.003906 478.058594 27.007812 423.625 8.148438 C 373.550781 -9.195312 270.507812 26.242188 270.710938 53.675781 C 270.828125 68.746094 295.988281 71.539062 295.988281 71.539062 Z M 624.554688 190.324219 L 578.441406 190.324219 L 578.441406 160.007812 L 624.554688 160.007812 L 624.554688 190.324219 " fill-opacity="1" fill-rule="nonzero"/></g><g clip-path="url(#203540e565)"><path fill="#141f35" d="M 579.519531 530.671875 L 579.519531 458.15625 L 628.761719 408.910156 C 628.476562 408.507812 628.207031 408.097656 627.917969 407.691406 L 579.519531 456.09375 L 579.519531 430.003906 L 616.464844 393.050781 C 616.148438 392.683594 615.84375 392.300781 615.519531 391.933594 L 579.519531 427.941406 L 579.519531 359.492188 C 579.035156 359.152344 578.542969 358.820312 578.058594 358.484375 L 578.058594 529.679688 L 535.328125 486.949219 C 535.390625 486.84375 535.433594 486.722656 535.433594 486.589844 L 535.433594 335.796875 C 534.953125 335.601562 534.460938 335.414062 533.976562 335.21875 L 533.976562 485.601562 L 518.660156 470.28125 C 518.769531 471.082031 518.890625 471.890625 518.992188 472.679688 L 646.269531 599.960938 L 648.332031 599.960938 L 579.410156 531.03125 C 579.472656 530.925781 579.519531 530.808594 579.519531 530.671875 Z M 74.089844 480.277344 L 81.667969 487.855469 C 81.769531 487.277344 81.875 486.691406 81.980469 486.105469 L 74.601562 478.730469 C 74.433594 479.25 74.265625 479.765625 74.089844 480.277344 Z M 206.292969 159.976562 L 225.105469 178.792969 L 243.859375 197.550781 C 244.328125 197.328125 244.796875 197.105469 245.265625 196.890625 L 226.652344 178.28125 L 281.664062 123.265625 C 281.105469 123.136719 280.546875 123.007812 279.984375 122.882812 L 225.625 177.246094 L 207.835938 159.464844 L 248.984375 118.316406 C 248.347656 118.269531 247.710938 118.214844 247.066406 118.167969 L 206.808594 158.429688 L 178.089844 129.710938 C 177.65625 129.964844 177.230469 130.234375 176.800781 130.492188 Z M 487.175781 551.132812 L 492.332031 556.289062 L 448.664062 599.960938 L 450.726562 599.960938 L 493.363281 557.320312 L 514.675781 578.632812 L 493.355469 599.960938 L 495.417969 599.960938 L 515.710938 579.667969 L 536.003906 599.960938 L 538.066406 599.960938 L 488.625 550.519531 C 488.152344 550.722656 487.660156 550.925781 487.175781 551.132812 Z M 188.128906 490.175781 L 188.128906 474 L 186.675781 477.316406 L 186.675781 490.09375 Z M 188.128906 581.691406 C 187.648438 581.707031 187.164062 581.730469 186.675781 581.746094 L 186.675781 590.792969 L 177.789062 581.914062 C 177.109375 581.917969 176.417969 581.914062 175.726562 581.914062 L 186.886719 593.074219 L 193.765625 599.960938 L 195.835938 599.960938 L 188.128906 592.253906 Z M 180.9375 242.832031 L 143.839844 205.726562 L 143.832031 205.726562 L 128.96875 190.855469 C 128.757812 191.335938 128.546875 191.816406 128.339844 192.296875 L 142.589844 206.546875 L 142.589844 311.703125 C 142.75 311.34375 142.839844 311.160156 142.839844 311.160156 C 143.246094 310.179688 143.648438 309.203125 144.050781 308.238281 L 144.050781 208.007812 L 179.960938 243.917969 C 180.28125 243.554688 180.609375 243.191406 180.9375 242.832031 Z M 70.578125 561.75 C 70.5625 561.722656 70.554688 561.695312 70.53125 561.667969 C 70.511719 561.648438 70.480469 561.644531 70.457031 561.621094 L 31.5 522.667969 C 31.117188 522.976562 30.75 523.289062 30.375 523.605469 L 68.972656 562.203125 L 31.214844 599.960938 L 33.273438 599.960938 L 70.003906 563.230469 L 83.050781 576.277344 L 59.367188 599.960938 L 61.429688 599.960938 L 84.078125 577.308594 L 106.730469 599.960938 L 108.789062 599.960938 L 84.597656 575.761719 Z M 303.390625 140.035156 L 319.328125 124.296875 C 319.328125 124.296875 317.402344 123.710938 313.707031 122.054688 C 310.007812 120.398438 304.171875 112.035156 304.757812 102.894531 C 305.34375 93.746094 309.8125 91.222656 314.097656 94.332031 C 318.378906 97.449219 323.628906 110.480469 323.628906 110.480469 L 331.605469 110.480469 L 337.5 80.59375 L 353.6875 78.871094 C 357.273438 81.902344 364.964844 85.773438 380.429688 84.804688 C 405.140625 83.242188 441.992188 75.875 449.886719 78.769531 C 475.660156 88.226562 431.460938 67.636719 428.414062 65.34375 C 428.414062 65.34375 427.824219 65.082031 426.757812 64.644531 L 427.875 55.484375 C 422.640625 61.121094 413.832031 60.96875 413.832031 60.96875 C 413.832031 60.96875 404.425781 61.128906 397.484375 54.859375 L 291.242188 67.996094 L 296.550781 84.957031 C 295.738281 99.113281 303.390625 140.035156 303.390625 140.035156 Z M 315.160156 104.023438 C 314.617188 103.339844 313.949219 102.707031 313.117188 102.316406 C 312.265625 101.957031 311.300781 101.851562 310.425781 102.246094 C 310.316406 102.296875 310.246094 102.421875 310.269531 102.546875 C 310.300781 102.699219 310.441406 102.796875 310.59375 102.769531 L 310.640625 102.765625 C 312.085938 102.496094 313.394531 103.496094 314.160156 104.738281 C 314.949219 106.003906 315.421875 107.515625 315.984375 109.046875 L 317.65625 113.589844 C 318.226562 115.097656 318.789062 116.617188 319.421875 118.117188 C 319.480469 118.253906 319.632812 118.34375 319.792969 118.316406 C 319.972656 118.277344 320.085938 118.105469 320.054688 117.925781 C 319.753906 116.316406 319.332031 114.746094 318.878906 113.179688 C 318.4375 111.613281 317.910156 110.074219 317.351562 108.542969 C 316.769531 107.050781 316.246094 105.433594 315.160156 104.023438 Z M 313.707031 138.453125 C 312.703125 139.023438 311.765625 139.664062 310.832031 140.316406 C 309.894531 140.960938 308.996094 141.65625 308.101562 142.351562 C 307.214844 143.0625 306.328125 143.777344 305.484375 144.539062 C 304.640625 145.300781 303.800781 146.070312 303.023438 146.914062 C 302.925781 147.019531 302.902344 147.175781 302.980469 147.308594 C 303.070312 147.46875 303.273438 147.519531 303.433594 147.429688 C 304.429688 146.855469 305.363281 146.210938 306.292969 145.554688 C 307.226562 144.898438 308.117188 144.199219 309.007812 143.492188 C 309.886719 142.769531 310.761719 142.050781 311.601562 141.277344 C 312.441406 140.511719 313.273438 139.738281 314.054688 138.886719 C 314.132812 138.804688 314.148438 138.671875 314.085938 138.558594 C 314.011719 138.421875 313.839844 138.375 313.707031 138.453125 Z M 318.015625 130.929688 C 318.105469 130.839844 318.125 130.699219 318.050781 130.585938 C 317.972656 130.449219 317.796875 130.414062 317.667969 130.496094 C 316.335938 131.324219 315.066406 132.230469 313.800781 133.144531 C 312.535156 134.050781 311.308594 135.015625 310.078125 135.976562 C 308.863281 136.945312 307.652344 137.925781 306.476562 138.957031 C 305.300781 139.980469 304.128906 141.007812 303.023438 142.113281 C 302.917969 142.226562 302.890625 142.394531 302.976562 142.53125 C 303.074219 142.683594 303.28125 142.730469 303.433594 142.632812 C 304.757812 141.796875 306.027344 140.886719 307.28125 139.964844 C 308.546875 139.046875 309.765625 138.082031 310.992188 137.117188 C 312.199219 136.128906 313.40625 135.148438 314.570312 134.109375 C 315.746094 133.082031 316.90625 132.042969 318.015625 130.929688 Z M 180.910156 490.308594 C 181.40625 489.941406 181.886719 489.554688 182.351562 489.148438 C 182.449219 489.058594 182.476562 488.90625 182.402344 488.789062 C 182.320312 488.660156 182.148438 488.621094 182.019531 488.699219 C 180.175781 489.851562 178.277344 490.878906 176.3125 491.734375 C 174.339844 492.578125 172.320312 493.308594 170.238281 493.800781 C 168.167969 494.355469 166.050781 494.679688 163.917969 494.871094 C 161.785156 495.058594 159.625 495.054688 157.464844 494.929688 C 157.304688 494.917969 157.160156 495.027344 157.121094 495.1875 C 157.078125 495.367188 157.195312 495.539062 157.375 495.582031 C 159.539062 496.0625 161.769531 496.226562 163.992188 496.15625 C 166.21875 496.089844 168.433594 495.734375 170.601562 495.207031 C 172.679688 494.636719 174.726562 493.90625 176.648438 492.933594 C 175.761719 493.59375 174.878906 494.253906 173.960938 494.867188 C 171.523438 496.472656 169.003906 497.964844 166.355469 499.191406 C 163.734375 500.472656 161.003906 501.511719 158.207031 502.3125 C 155.40625 503.113281 152.527344 503.636719 149.605469 503.792969 C 149.445312 503.804688 149.308594 503.9375 149.296875 504.105469 C 149.285156 504.285156 149.421875 504.441406 149.605469 504.453125 C 152.601562 504.640625 155.617188 504.261719 158.535156 503.5625 C 161.457031 502.847656 164.273438 501.773438 166.988281 500.503906 C 169.671875 499.171875 172.261719 497.648438 174.671875 495.871094 C 176.917969 494.210938 179.027344 492.367188 180.910156 490.308594 Z M 459.589844 450.121094 C 460.472656 457.070312 461.398438 464.003906 462.253906 470.957031 C 462.222656 471.097656 462.242188 471.246094 462.304688 471.382812 C 462.996094 477.023438 463.644531 482.664062 464.148438 488.316406 C 465.324219 501.066406 465.84375 513.898438 464.996094 526.667969 C 464.609375 533.054688 463.75 539.398438 462.582031 545.683594 C 461.335938 551.960938 459.574219 558.121094 457.429688 564.148438 L 457.429688 564.160156 C 457.363281 564.328125 457.453125 564.515625 457.625 564.582031 C 457.796875 564.636719 457.980469 564.554688 458.050781 564.378906 C 460.269531 558.339844 462.109375 552.160156 463.429688 545.859375 C 464.675781 539.546875 465.609375 533.167969 466.0625 526.742188 C 466.960938 513.898438 466.472656 501.003906 465.34375 488.210938 C 464.863281 482.609375 464.246094 477.023438 463.582031 471.453125 C 465.054688 470.28125 466.703125 469.238281 468.359375 468.277344 C 470.105469 467.28125 471.929688 466.425781 473.8125 465.742188 C 475.691406 465.035156 477.648438 464.542969 479.625 464.242188 C 481.605469 463.921875 483.617188 463.953125 485.628906 464.101562 L 485.65625 464.105469 C 485.824219 464.117188 485.972656 464 486.003906 463.832031 C 486.035156 463.652344 485.914062 463.484375 485.734375 463.453125 C 483.691406 463.085938 481.582031 462.898438 479.492188 463.128906 C 477.414062 463.367188 475.332031 463.742188 473.363281 464.453125 C 471.386719 465.144531 469.476562 466.007812 467.648438 467.015625 C 466.457031 467.679688 465.332031 468.433594 464.230469 469.238281 L 464.796875 467.78125 C 465.300781 466.664062 465.835938 465.550781 466.558594 464.570312 C 467.257812 463.578125 468.085938 462.675781 469.0625 461.964844 C 470.03125 461.273438 471.199219 460.742188 472.347656 460.625 L 472.394531 460.621094 C 472.53125 460.609375 472.636719 460.492188 472.640625 460.351562 C 472.640625 460.199219 472.519531 460.070312 472.367188 460.070312 C 470.976562 460.046875 469.722656 460.550781 468.570312 461.226562 C 467.425781 461.90625 466.472656 462.867188 465.664062 463.898438 C 464.828125 464.929688 464.199219 466.082031 463.609375 467.25 C 463.472656 467.574219 463.339844 467.90625 463.203125 468.234375 C 462.460938 462.132812 461.664062 456.042969 460.910156 449.945312 L 456.097656 411.757812 L 450.054688 365.1875 C 451.238281 364.214844 452.097656 362.964844 452.863281 361.714844 C 453.707031 360.25 454.40625 358.726562 455.054688 357.179688 C 456.332031 354.085938 457.308594 350.894531 458.226562 347.695312 C 459.074219 344.476562 459.859375 341.25 460.503906 337.992188 C 461.152344 334.730469 461.726562 331.46875 462.128906 328.167969 C 462.144531 328.03125 462.054688 327.890625 461.910156 327.859375 C 461.761719 327.824219 461.609375 327.925781 461.578125 328.070312 L 459.304688 337.726562 C 458.515625 340.933594 457.738281 344.140625 456.820312 347.308594 C 455.960938 350.488281 454.992188 353.636719 453.851562 356.710938 C 453.289062 358.246094 452.667969 359.761719 451.929688 361.203125 C 451.421875 362.21875 450.835938 363.207031 450.128906 364.058594 L 452.132812 358.113281 C 452.96875 355.703125 453.695312 353.132812 454.089844 350.5625 C 454.929688 345.398438 454.855469 340.191406 454.886719 335.058594 C 454.871094 329.898438 454.664062 324.722656 454.152344 319.582031 C 453.652344 314.457031 453.097656 309.339844 452.503906 304.226562 C 452.480469 304.078125 452.355469 303.972656 452.207031 303.976562 C 452.054688 303.988281 451.9375 304.121094 451.945312 304.273438 C 452.222656 309.414062 452.550781 314.550781 452.925781 319.6875 C 453.285156 324.800781 453.496094 329.921875 453.429688 335.058594 C 453.453125 340.207031 453.511719 345.335938 452.8125 350.367188 C 452.492188 352.90625 451.878906 355.320312 451.117188 357.796875 L 449.738281 362.722656 L 446.195312 335.40625 L 441.246094 297.234375 L 436.15625 259.078125 C 436.132812 258.925781 435.996094 258.820312 435.847656 258.835938 C 435.695312 258.859375 435.585938 258.996094 435.605469 259.148438 L 440.269531 297.359375 L 445.0625 335.554688 L 454.65625 411.945312 Z M 273.792969 328.988281 C 272.421875 330.757812 271.007812 332.5 269.566406 334.226562 C 268.152344 335.964844 266.71875 337.691406 265.253906 339.390625 C 262.335938 342.785156 259.398438 346.175781 256.308594 349.40625 C 253.25 352.679688 250.09375 355.851562 246.796875 358.867188 C 245.984375 359.640625 245.121094 360.34375 244.285156 361.089844 C 243.457031 361.84375 242.597656 362.554688 241.714844 363.234375 C 240.464844 364.304688 239.144531 365.277344 237.8125 366.234375 C 240.878906 358.925781 243.871094 351.574219 246.6875 344.15625 C 249.867188 335.617188 252.855469 327.007812 255.328125 318.214844 C 256.535156 313.816406 257.671875 309.382812 258.367188 304.847656 C 258.582031 303.722656 258.703125 302.582031 258.816406 301.429688 L 258.988281 299.714844 L 259.019531 297.976562 C 259.019531 297.394531 259.058594 296.816406 259.027344 296.242188 L 258.613281 291.101562 C 257.585938 281.980469 254.832031 273.128906 250.984375 264.84375 C 246.992188 256.617188 242.035156 248.859375 235.898438 242.074219 C 235.792969 241.957031 235.621094 241.945312 235.507812 242.046875 C 235.390625 242.148438 235.378906 242.324219 235.480469 242.441406 L 235.492188 242.457031 C 241.453125 249.261719 246.28125 257.066406 250.09375 265.261719 C 253.835938 273.488281 256.515625 282.242188 257.476562 291.226562 L 257.855469 296.289062 C 257.882812 296.847656 257.839844 297.402344 257.835938 297.960938 L 257.796875 299.636719 L 257.613281 301.308594 C 257.5 302.425781 257.378906 303.546875 257.160156 304.652344 C 256.453125 309.113281 255.304688 313.507812 254.078125 317.863281 C 251.570312 326.578125 248.542969 335.148438 245.324219 343.644531 C 238.933594 360.65625 231.789062 377.390625 224.359375 393.984375 C 220.640625 402.28125 216.828125 410.539062 212.957031 418.769531 C 209.125 427.015625 205.222656 435.234375 201.222656 443.402344 C 201.144531 443.558594 201.214844 443.761719 201.371094 443.839844 C 201.535156 443.925781 201.734375 443.859375 201.8125 443.695312 C 205.9375 435.582031 209.960938 427.417969 213.921875 419.222656 C 217.839844 411.011719 221.691406 402.765625 225.457031 394.480469 C 229.511719 385.527344 233.476562 376.535156 237.300781 367.476562 C 240.96875 365.238281 244.398438 362.628906 247.652344 359.832031 C 251.074219 356.875 254.253906 353.664062 257.371094 350.40625 C 260.429688 347.09375 263.386719 343.6875 266.203125 340.167969 C 269.023438 336.65625 271.722656 333.050781 274.246094 329.3125 C 274.324219 329.191406 274.304688 329.027344 274.183594 328.929688 C 274.058594 328.84375 273.886719 328.863281 273.792969 328.988281 Z M 408.375 365.992188 L 348.992188 365.992188 L 348.992188 460.34375 L 408.375 460.34375 Z M 436.914062 300.148438 C 437.027344 300.292969 437 300.496094 436.855469 300.609375 C 436.726562 300.714844 436.535156 300.699219 436.417969 300.582031 L 436.402344 300.566406 C 434.453125 298.609375 432.195312 296.890625 429.765625 295.636719 C 427.339844 294.375 424.660156 293.609375 421.96875 293.699219 C 421.140625 293.722656 420.320312 293.835938 419.5 293.988281 C 419.144531 304.105469 418.351562 314.214844 417.15625 324.296875 C 417.582031 324.507812 418.015625 324.710938 418.445312 324.921875 C 420.703125 326.105469 422.988281 327.226562 425.21875 328.453125 C 426.726562 327.3125 428.21875 326.15625 429.765625 325.0625 C 431.414062 323.851562 433.082031 322.675781 434.785156 321.539062 C 434.910156 321.453125 435.085938 321.484375 435.175781 321.617188 C 435.25 321.734375 435.226562 321.886719 435.128906 321.976562 C 433.609375 323.347656 432.050781 324.675781 430.476562 325.976562 C 428.921875 327.308594 427.3125 328.5625 425.71875 329.839844 C 425.503906 330.011719 425.21875 330.035156 424.980469 329.917969 L 424.960938 329.90625 C 422.542969 328.710938 420.203125 327.375 417.820312 326.117188 C 417.539062 325.960938 417.269531 325.804688 416.992188 325.652344 C 415.875 334.753906 414.433594 343.839844 412.625 352.894531 L 411.453125 358.777344 C 413.84375 359.175781 415.667969 361.230469 415.667969 363.730469 L 415.667969 462.613281 C 415.667969 465.390625 413.417969 467.644531 410.636719 467.644531 L 399.980469 467.644531 L 404.265625 541.042969 L 383.9375 571.363281 L 360.761719 545.390625 L 362.191406 467.644531 L 346.726562 467.644531 C 343.949219 467.644531 341.699219 465.390625 341.699219 462.613281 L 341.699219 363.730469 C 341.699219 361.4375 343.238281 359.523438 345.335938 358.917969 C 335.085938 311.191406 313.789062 263.1875 285.167969 222.320312 C 271.316406 230.414062 250.699219 241.941406 246.273438 241.519531 C 239.476562 240.875 212.929688 238.316406 212.929688 238.316406 C 212.929688 238.316406 219.078125 214.824219 222.796875 212.25 C 225.308594 210.511719 248.015625 199.917969 262.476562 193.234375 C 261.746094 192.40625 261.03125 191.570312 260.300781 190.746094 C 259.5 189.84375 259.585938 188.457031 260.488281 187.65625 C 261.394531 186.855469 262.773438 186.9375 263.578125 187.839844 C 264.59375 188.992188 265.601562 190.15625 266.609375 191.328125 C 267.695312 190.824219 268.703125 190.363281 269.597656 189.949219 C 272.46875 188.625 275.863281 189.355469 277.945312 191.722656 L 292.496094 208.285156 C 295.414062 211.609375 294.59375 216.746094 290.78125 219.007812 C 290.203125 219.355469 289.585938 219.71875 288.953125 220.09375 C 317.941406 261.578125 339.476562 310.300781 349.765625 358.695312 L 364.199219 358.695312 L 366.621094 227.238281 C 362.785156 221.871094 360.089844 215.332031 359.117188 212.789062 C 357.414062 214.066406 355.683594 215.316406 353.917969 216.523438 C 352.148438 217.65625 350.398438 218.804688 348.433594 219.675781 C 347.960938 219.929688 347.441406 220.105469 346.921875 220.289062 C 346.660156 220.371094 346.417969 220.476562 346.136719 220.550781 C 345.816406 220.59375 345.496094 220.632812 345.171875 220.65625 C 343.996094 220.566406 342.925781 220.289062 341.929688 219.898438 C 337.9375 218.363281 334.371094 216.183594 330.824219 213.996094 C 323.773438 209.550781 317.019531 204.695312 310.339844 199.75 C 303.65625 194.8125 297.15625 189.628906 290.707031 184.390625 C 290.566406 184.277344 290.546875 184.070312 290.660156 183.929688 C 290.773438 183.789062 290.984375 183.769531 291.125 183.878906 C 297.660156 188.992188 304.335938 193.921875 311.007812 198.847656 C 317.703125 203.734375 324.480469 208.535156 331.507812 212.890625 C 335.03125 215.03125 338.617188 217.171875 342.398438 218.589844 C 343.335938 218.953125 344.300781 219.171875 345.1875 219.238281 C 345.390625 219.210938 345.578125 219.191406 345.777344 219.179688 C 345.996094 219.117188 346.234375 219.015625 346.460938 218.9375 C 346.917969 218.769531 347.382812 218.617188 347.832031 218.375 C 349.65625 217.539062 351.390625 216.40625 353.125 215.324219 C 359.96875 210.75 366.394531 205.449219 372.625 200.015625 L 372.632812 200.011719 C 372.847656 199.820312 373.160156 199.8125 373.386719 199.96875 C 379.460938 204.277344 385.5625 208.566406 391.769531 212.671875 C 393.320312 213.695312 394.886719 214.703125 396.460938 215.664062 C 396.859375 215.894531 397.257812 216.128906 397.652344 216.332031 C 397.808594 216.414062 397.953125 216.480469 398.097656 216.542969 C 397.984375 215.894531 397.667969 215.074219 397.394531 214.359375 C 396 210.9375 394.335938 207.589844 392.660156 204.273438 C 392.585938 204.136719 392.640625 203.96875 392.777344 203.898438 C 392.914062 203.824219 393.082031 203.882812 393.152344 204.007812 C 394.910156 207.304688 396.652344 210.601562 398.15625 214.050781 C 398.335938 214.480469 398.519531 214.917969 398.675781 215.375 C 398.824219 215.847656 399.007812 216.238281 399.03125 216.890625 C 399.019531 216.992188 399.039062 217.054688 398.953125 217.238281 C 398.894531 217.324219 398.917969 217.363281 398.746094 217.476562 C 398.5625 217.582031 398.492188 217.5625 398.429688 217.566406 C 398.164062 217.550781 398.066406 217.5 397.929688 217.457031 C 397.675781 217.367188 397.464844 217.261719 397.242188 217.15625 C 396.808594 216.945312 396.398438 216.710938 395.988281 216.484375 C 394.347656 215.558594 392.777344 214.546875 391.203125 213.53125 C 390.847656 213.300781 390.496094 213.058594 390.140625 212.820312 C 390.035156 215.84375 389.441406 224.253906 386.089844 229.871094 L 393.613281 358.695312 L 407.007812 358.695312 L 408.332031 352.039062 C 410.242188 342.480469 411.734375 332.882812 412.867188 323.269531 C 412.1875 322.867188 411.503906 322.472656 410.828125 322.050781 C 410.667969 321.953125 410.621094 321.75 410.722656 321.597656 C 410.804688 321.453125 410.984375 321.402344 411.132812 321.464844 C 411.753906 321.738281 412.367188 322.027344 412.980469 322.3125 C 414.011719 313.363281 414.714844 304.394531 415.070312 295.414062 C 414.761719 295.554688 414.449219 295.675781 414.144531 295.832031 C 411.679688 297.070312 409.359375 298.683594 407.292969 300.542969 L 407.277344 300.554688 C 407.167969 300.660156 406.988281 300.648438 406.886719 300.535156 C 406.792969 300.429688 406.792969 300.269531 406.882812 300.171875 C 408.769531 297.980469 411.046875 296.179688 413.570312 294.742188 C 414.074219 294.453125 414.609375 294.207031 415.140625 293.957031 C 416.042969 268.867188 414.328125 243.722656 409.988281 218.738281 C 409.914062 218.292969 409.976562 217.855469 410.148438 217.472656 C 405.578125 213.898438 400.695312 209.3125 400.695312 209.3125 C 400.695312 209.3125 407.128906 203.085938 412.945312 205.417969 C 418.761719 207.753906 433.355469 228.957031 434.324219 233.238281 C 435.296875 237.523438 434.851562 245.503906 434.851562 245.503906 C 434.851562 245.503906 420.234375 224.808594 414.75 220.746094 C 418.710938 244.597656 420.292969 268.59375 419.542969 292.542969 C 420.324219 292.390625 421.121094 292.285156 421.925781 292.246094 C 424.914062 292.191406 427.855469 293.046875 430.382812 294.5 C 432.914062 295.960938 435.132812 297.855469 436.914062 300.148438 Z M 209.828125 534.292969 C 209.175781 526.757812 208.816406 519.195312 208.667969 511.640625 C 208.539062 504.078125 208.636719 496.503906 209.042969 488.949219 C 209.054688 488.796875 208.945312 488.667969 208.792969 488.652344 C 208.644531 488.636719 208.507812 488.75 208.492188 488.90625 C 207.761719 496.457031 207.425781 504.058594 207.441406 511.652344 C 207.4375 519.246094 207.800781 526.839844 208.375 534.410156 C 209.019531 541.976562 209.886719 549.53125 211.078125 557.027344 C 212.261719 564.53125 213.757812 571.984375 215.59375 579.347656 C 215.636719 579.519531 215.808594 579.625 215.984375 579.589844 C 216.164062 579.550781 216.273438 579.378906 216.238281 579.199219 C 214.707031 571.785156 213.433594 564.328125 212.355469 556.839844 C 211.289062 549.351562 210.414062 541.835938 209.828125 534.292969 Z M 387.597656 377.761719 L 369.769531 377.761719 L 369.769531 395.585938 L 387.597656 395.585938 Z M 388.898438 150.761719 C 390.398438 150.8125 391.90625 150.710938 393.371094 150.390625 C 394.84375 150.050781 396.261719 149.476562 397.515625 148.660156 C 397.644531 148.578125 397.703125 148.421875 397.648438 148.273438 C 397.585938 148.101562 397.394531 148.011719 397.226562 148.070312 L 397.207031 148.078125 C 395.859375 148.546875 394.527344 148.929688 393.144531 149.117188 C 391.757812 149.277344 390.359375 149.359375 388.957031 149.308594 C 386.148438 149.203125 383.324219 148.742188 380.535156 148.109375 L 380.519531 148.105469 C 380.398438 148.078125 380.265625 148.136719 380.210938 148.253906 C 380.140625 148.390625 380.195312 148.558594 380.332031 148.628906 C 381.664062 149.300781 383.066406 149.757812 384.503906 150.121094 C 385.9375 150.484375 387.414062 150.683594 388.898438 150.761719 Z M 401.539062 132.296875 C 400.769531 132.460938 399.9375 132.425781 399.113281 132.40625 C 397.453125 132.320312 395.777344 132.003906 394.136719 131.617188 L 394.132812 131.617188 C 393.996094 131.582031 393.851562 131.652344 393.804688 131.789062 C 393.75 131.933594 393.824219 132.09375 393.96875 132.148438 C 395.601562 132.738281 397.285156 133.144531 399.03125 133.386719 C 399.90625 133.460938 400.796875 133.535156 401.714844 133.390625 C 402.609375 133.25 403.628906 132.992188 404.367188 132.136719 C 405.089844 131.230469 405.074219 130.113281 404.972656 129.210938 C 404.832031 128.320312 404.652344 127.449219 404.402344 126.617188 C 403.957031 124.933594 403.382812 123.316406 402.8125 121.683594 C 401.582031 118.46875 400.269531 115.304688 398.855469 112.183594 C 397.433594 109.066406 395.960938 105.976562 394.351562 102.949219 C 394.273438 102.800781 394.09375 102.734375 393.9375 102.796875 C 393.765625 102.863281 393.683594 103.058594 393.757812 103.226562 L 397.667969 112.695312 C 398.96875 115.851562 400.285156 119 401.441406 122.191406 C 402.035156 123.785156 402.625 125.375 403.089844 126.984375 C 403.523438 128.558594 404.082031 130.359375 403.402344 131.371094 C 403.027344 131.867188 402.300781 132.148438 401.539062 132.296875 Z M 390.957031 21.800781 L 390.96875 21.789062 C 392.4375 20.804688 393.972656 19.871094 395.542969 19.042969 C 397.105469 18.199219 398.703125 17.414062 400.355469 16.796875 C 403.617188 15.53125 407.144531 14.65625 410.484375 15.265625 C 413.894531 15.910156 417.171875 17.375 420.320312 18.996094 C 423.460938 20.652344 426.515625 22.535156 429.453125 24.554688 L 429.464844 24.566406 C 429.601562 24.660156 429.789062 24.632812 429.902344 24.5 C 430.015625 24.363281 430 24.152344 429.859375 24.039062 C 427.085938 21.699219 424.089844 19.671875 420.9375 17.863281 C 417.765625 16.101562 414.40625 14.582031 410.753906 13.832031 C 406.945312 13.230469 403.21875 14.210938 399.882812 15.65625 C 396.53125 17.125 393.433594 19.054688 390.625 21.351562 C 390.515625 21.441406 390.488281 21.605469 390.570312 21.726562 C 390.65625 21.855469 390.832031 21.886719 390.957031 21.800781 Z M 406.222656 142.261719 C 406.160156 142.09375 405.96875 142.003906 405.796875 142.066406 L 405.785156 142.074219 C 402.890625 143.132812 399.90625 144.007812 396.898438 144.621094 C 393.890625 145.199219 390.832031 145.601562 387.828125 145.210938 C 384.796875 144.9375 381.78125 144.175781 378.78125 143.433594 C 375.785156 142.652344 372.800781 141.765625 369.835938 140.832031 C 369.703125 140.792969 369.550781 140.847656 369.492188 140.980469 C 369.429688 141.125 369.492188 141.285156 369.636719 141.351562 C 372.5 142.632812 375.449219 143.6875 378.441406 144.621094 C 381.449219 145.519531 384.507812 146.285156 387.683594 146.660156 C 390.886719 147.019531 394.109375 146.601562 397.175781 145.878906 C 400.25 145.121094 403.226562 144.085938 406.058594 142.671875 C 406.207031 142.601562 406.28125 142.425781 406.222656 142.261719 Z M 324.273438 130.375 C 324.964844 137.292969 326.488281 144.128906 328.972656 150.65625 C 330.207031 153.921875 331.75 157.082031 333.632812 160.050781 C 335.480469 163.039062 337.90625 165.738281 340.710938 167.875 C 343.507812 170.039062 346.601562 171.761719 349.820312 173.144531 C 353.03125 174.542969 356.363281 175.644531 359.753906 176.457031 C 366.53125 178.105469 373.46875 178.921875 380.4375 178.902344 C 380.609375 178.902344 380.757812 178.761719 380.761719 178.582031 C 380.769531 178.402344 380.625 178.25 380.441406 178.242188 L 380.429688 178.242188 C 377.003906 178.132812 373.566406 177.769531 370.164062 177.25 C 366.761719 176.761719 363.382812 176.101562 360.070312 175.207031 C 353.472656 173.445312 346.964844 170.898438 341.601562 166.726562 C 336.097656 162.691406 332.742188 156.488281 330.117188 150.203125 C 328.816406 147.035156 327.765625 143.753906 326.898438 140.425781 C 326.019531 137.105469 325.292969 133.726562 324.828125 130.324219 L 324.828125 130.308594 C 324.808594 130.160156 324.675781 130.054688 324.527344 130.070312 C 324.367188 130.085938 324.257812 130.222656 324.273438 130.375 Z M 326.304688 113.238281 C 326.890625 113.316406 327.46875 113.332031 328.054688 113.347656 C 328.640625 113.34375 329.21875 113.335938 329.804688 113.265625 C 330.390625 113.199219 330.972656 113.121094 331.558594 112.953125 C 331.664062 112.921875 331.75 112.832031 331.789062 112.71875 C 331.839844 112.535156 331.734375 112.347656 331.558594 112.289062 C 330.972656 112.113281 330.390625 112.039062 329.804688 111.976562 C 329.21875 111.902344 328.640625 111.898438 328.054688 111.894531 C 327.46875 111.910156 326.890625 111.925781 326.304688 112.003906 C 325.71875 112.078125 325.140625 112.160156 324.554688 112.339844 C 324.464844 112.367188 324.390625 112.441406 324.359375 112.535156 C 324.3125 112.6875 324.402344 112.851562 324.554688 112.898438 C 325.140625 113.078125 325.71875 113.164062 326.304688 113.238281 Z M 380.917969 92.308594 C 381.054688 92.363281 381.214844 92.324219 381.3125 92.195312 C 381.417969 92.046875 381.386719 91.84375 381.238281 91.730469 C 380.695312 91.332031 380.136719 90.9375 379.546875 90.589844 C 378.914062 90.3125 378.3125 89.949219 377.621094 89.785156 C 376.292969 89.3125 374.808594 89.28125 373.410156 89.507812 C 372.003906 89.761719 370.667969 90.339844 369.550781 91.183594 C 368.433594 92.015625 367.46875 93.015625 366.777344 94.226562 C 366.71875 94.332031 366.730469 94.46875 366.824219 94.558594 C 366.929688 94.667969 367.109375 94.667969 367.214844 94.5625 L 367.238281 94.542969 C 369.054688 92.753906 371.261719 91.320312 373.664062 90.941406 C 374.851562 90.75 376.085938 90.746094 377.292969 91.035156 C 378.523438 91.261719 379.683594 91.785156 380.882812 92.292969 Z M 389.273438 125.414062 C 389.824219 124.832031 390.402344 124.257812 390.957031 123.648438 L 390.960938 123.636719 C 391.03125 123.558594 391.058594 123.441406 391.007812 123.335938 C 390.945312 123.195312 390.78125 123.125 390.636719 123.1875 C 389.847656 123.53125 389.136719 123.984375 388.453125 124.496094 C 387.773438 125.027344 387.128906 125.578125 386.601562 126.453125 C 386.480469 126.667969 386.363281 126.933594 386.3125 127.265625 C 386.253906 127.625 386.3125 127.957031 386.421875 128.222656 C 386.660156 128.769531 386.996094 129.148438 387.359375 129.4375 C 388.082031 130.027344 388.851562 130.40625 389.707031 130.644531 C 389.828125 130.683594 389.964844 130.644531 390.054688 130.535156 C 390.171875 130.390625 390.148438 130.179688 390.007812 130.066406 L 389.988281 130.050781 C 389.375 129.546875 388.726562 129.046875 388.25 128.507812 C 388.03125 128.230469 387.824219 127.960938 387.765625 127.734375 C 387.699219 127.503906 387.71875 127.476562 387.878906 127.152344 C 388.175781 126.589844 388.757812 126 389.273438 125.414062 Z M 414.144531 92.308594 C 414.28125 92.363281 414.445312 92.324219 414.535156 92.195312 C 414.644531 92.046875 414.613281 91.84375 414.464844 91.730469 C 413.921875 91.332031 413.359375 90.9375 412.769531 90.589844 C 412.136719 90.3125 411.535156 89.949219 410.84375 89.785156 C 409.519531 89.3125 408.039062 89.28125 406.632812 89.507812 C 405.230469 89.761719 403.890625 90.339844 402.773438 91.183594 C 401.65625 92.015625 400.695312 93.015625 400.007812 94.226562 C 399.941406 94.332031 399.957031 94.46875 400.046875 94.558594 C 400.152344 94.667969 400.332031 94.667969 400.445312 94.5625 L 400.460938 94.542969 C 402.277344 92.753906 404.488281 91.320312 406.886719 90.941406 C 408.078125 90.75 409.3125 90.746094 410.519531 91.035156 C 411.746094 91.261719 412.90625 91.785156 414.105469 92.292969 Z M 412.628906 104.078125 C 412.628906 100.628906 410.714844 97.832031 408.347656 97.832031 C 405.984375 97.832031 404.070312 100.628906 404.070312 104.078125 C 404.070312 107.519531 405.984375 110.316406 408.347656 110.316406 C 410.714844 110.316406 412.628906 107.519531 412.628906 104.078125 Z M 374.019531 97.832031 C 371.652344 97.832031 369.738281 100.628906 369.738281 104.078125 C 369.738281 107.519531 371.652344 110.316406 374.019531 110.316406 C 376.382812 110.316406 378.296875 107.519531 378.296875 104.078125 C 378.296875 100.628906 376.382812 97.832031 374.019531 97.832031 Z M 488.664062 246.375 L 523.574219 246.375 L 528.835938 95.808594 C 529.285156 82.953125 518.984375 72.285156 506.117188 72.285156 C 493.25 72.285156 482.945312 82.953125 483.394531 95.808594 L 488.65625 246.375 Z M 492.945312 262.554688 L 489.445312 322.261719 C 489.144531 327.4375 493.257812 331.804688 498.445312 331.804688 L 513.789062 331.804688 C 518.976562 331.804688 523.09375 327.4375 522.789062 322.261719 L 519.285156 262.554688 Z M 493.03125 261.097656 L 528.847656 261.097656 L 528.847656 247.832031 L 483.382812 247.832031 L 483.382812 261.097656 Z M 41.746094 184.882812 L 49.511719 184.882812 L 49.511719 295.546875 C 49.511719 298.203125 51.667969 300.355469 54.328125 300.355469 L 56.800781 300.355469 L 56.800781 304.246094 L 77.53125 304.246094 L 77.53125 300.355469 L 80.003906 300.355469 C 82.660156 300.355469 84.816406 298.203125 84.816406 295.546875 L 84.816406 184.882812 L 92.585938 184.882812 L 100.058594 159.980469 L 103.882812 159.980469 L 103.882812 147.53125 L 30.449219 147.53125 L 30.449219 159.980469 L 34.273438 159.980469 Z M 640.78125 163.367188 L 636.113281 163.367188 L 636.113281 183.789062 L 640.78125 183.789062 Z M 595 239.4375 L 607.996094 239.4375 L 607.996094 230.21875 L 595 230.21875 Z M 595 228.757812 L 607.996094 228.757812 L 607.996094 218.832031 L 595 218.832031 Z M 609.457031 239.4375 L 614.894531 239.4375 C 617.027344 239.4375 618.765625 237.695312 618.765625 235.558594 L 618.765625 230.21875 L 609.457031 230.21875 Z M 640.78125 196.503906 L 636.113281 196.503906 L 636.113281 216.933594 L 640.78125 216.933594 Z M 595 217.378906 L 607.996094 217.378906 L 607.996094 207.449219 L 595 207.449219 Z M 584.226562 201.332031 L 584.226562 205.992188 L 593.542969 205.992188 L 593.542969 197.460938 L 588.105469 197.460938 C 585.96875 197.460938 584.226562 199.195312 584.226562 201.332031 Z M 614.894531 197.460938 L 609.457031 197.460938 L 609.457031 205.992188 L 618.765625 205.992188 L 618.765625 201.332031 C 618.765625 199.195312 617.027344 197.460938 614.894531 197.460938 Z M 581.089844 188.578125 L 621.902344 188.578125 L 621.902344 161.753906 L 581.089844 161.753906 Z M 620.226562 201.332031 C 620.226562 198.394531 617.832031 196 614.894531 196 L 588.105469 196 C 585.160156 196 582.765625 198.394531 582.765625 201.332031 L 582.765625 235.558594 C 582.765625 238.496094 585.160156 240.890625 588.105469 240.890625 L 594.261719 240.890625 C 594.269531 240.890625 594.269531 240.898438 594.269531 240.898438 C 594.273438 240.898438 594.273438 240.890625 594.273438 240.890625 L 608.71875 240.890625 C 608.722656 240.890625 608.722656 240.898438 608.722656 240.898438 C 608.730469 240.898438 608.730469 240.890625 608.730469 240.890625 L 614.894531 240.890625 C 617.832031 240.890625 620.226562 238.496094 620.226562 235.558594 Z M 571.945312 248.664062 L 571.945312 160.96875 C 571.945312 155.863281 575.644531 151.632812 580.496094 150.773438 C 581.085938 150.667969 581.691406 150.605469 582.3125 150.605469 L 620.679688 150.605469 C 626.40625 150.605469 631.039062 155.242188 631.039062 160.96875 L 631.039062 248.664062 C 631.039062 253.097656 627.449219 256.695312 623.015625 256.695312 L 579.976562 256.695312 C 575.542969 256.695312 571.945312 253.097656 571.945312 248.664062 Z M 580.496094 146.917969 L 589.421875 146.917969 L 589.421875 137.5625 L 591.765625 137.5625 L 588.738281 75.78125 L 581.179688 75.78125 L 578.160156 137.5625 L 580.496094 137.5625 Z M 609.457031 217.378906 L 618.765625 217.378906 L 618.765625 207.449219 L 609.457031 207.449219 Z M 609.457031 228.757812 L 618.765625 228.757812 L 618.765625 218.832031 L 609.457031 218.832031 Z M 584.226562 217.378906 L 593.542969 217.378906 L 593.542969 207.449219 L 584.226562 207.449219 Z M 595 205.992188 L 607.996094 205.992188 L 607.996094 197.460938 L 595 197.460938 Z M 584.226562 235.558594 C 584.226562 237.695312 585.96875 239.4375 588.105469 239.4375 L 593.542969 239.4375 L 593.542969 230.21875 L 584.226562 230.21875 Z M 584.226562 228.757812 L 593.542969 228.757812 L 593.542969 218.832031 L 584.226562 218.832031 Z M 664.527344 300.292969 L 664.527344 331.816406 C 664.527344 337.152344 660.1875 341.492188 654.855469 341.492188 L 552.808594 341.492188 C 547.476562 341.492188 543.136719 337.152344 543.136719 331.816406 L 543.136719 300.292969 L 544.59375 300.292969 L 544.59375 331.816406 C 544.59375 336.347656 548.277344 340.03125 552.808594 340.03125 L 654.855469 340.03125 C 659.378906 340.03125 663.066406 336.347656 663.066406 331.816406 L 663.066406 300.292969 L 664.527344 300.292969 " fill-opacity="1" fill-rule="nonzero"/></g></svg>